<svg width="485" height="448" viewBox="0 0 485 448" fill="none" xmlns="http://www.w3.org/2000/svg">
<g filter="url(#filter0_d)">
<path d="M67 421C-32 500.907 9 207 9 207C9 207 34.3396 -105.044 151.876 38.8022C269.412 182.648 514 38 471 262C428 486 166 341.093 67 421Z" fill="#0AE1EF" fill-opacity="0.8"/>
<path d="M67 421C-32 500.907 9 207 9 207C9 207 34.3396 -105.044 151.876 38.8022C269.412 182.648 514 38 471 262C428 486 166 341.093 67 421Z" fill="url(#paint0_linear)"/>
</g>
<defs>
<filter id="filter0_d" x="0.584991" y="0.908905" width="483.426" height="446.863" filterUnits="userSpaceOnUse" color-interpolation-filters="sRGB">
<feFlood flood-opacity="0" result="BackgroundImageFix"/>
<feColorMatrix in="SourceAlpha" type="matrix" values="0 0 0 0 0 0 0 0 0 0 0 0 0 0 0 0 0 0 127 0"/>
<feOffset dx="4" dy="9"/>
<feGaussianBlur stdDeviation="2"/>
<feColorMatrix type="matrix" values="0 0 0 0 0 0 0 0 0 0 0 0 0 0 0 0 0 0 0.25 0"/>
<feBlend mode="normal" in2="BackgroundImageFix" result="effect1_dropShadow"/>
<feBlend mode="normal" in="SourceGraphic" in2="effect1_dropShadow" result="shape"/>
</filter>
<linearGradient id="paint0_linear" x1="1.00001" y1="153" x2="562" y2="218" gradientUnits="userSpaceOnUse">
<stop stop-color="#FF4D78" stop-opacity="0.86"/>
<stop stop-color="#FF73B6"/>
<stop offset="0.000633315" stop-color="#FF2DD1" stop-opacity="0.63"/>
<stop offset="0.0355859" stop-color="#FCFF65"/>
<stop offset="0.270209" stop-color="#95FD12" stop-opacity="0.854167"/>
<stop offset="0.576464" stop-color="#FBFF4F" stop-opacity="0.942708"/>
<stop offset="1" stop-color="white" stop-opacity="0"/>
</linearGradient>
</defs>
</svg>
