<svg width="494" height="300" viewBox="0 0 494 300" fill="none" xmlns="http://www.w3.org/2000/svg">
<g filter="url(#filter0_d)">
<path d="M496.234 130.351C496.234 214.165 468.185 353.313 335.5 260.537C202.815 167.761 34.239 237.915 7.04943 130.351C-20.1402 22.7875 154.102 0.165441 335.5 0.165441C516.898 0.165441 496.234 58.4514 496.234 130.351Z" fill="#F7E011"/>
<path d="M496.234 130.351C496.234 214.165 468.185 353.313 335.5 260.537C202.815 167.761 34.239 237.915 7.04943 130.351C-20.1402 22.7875 154.102 0.165441 335.5 0.165441C516.898 0.165441 496.234 58.4514 496.234 130.351Z" fill="url(#paint0_linear)"/>
</g>
<defs>
<filter id="filter0_d" x="0.234009" y="0.165436" width="500.711" height="299.084" filterUnits="userSpaceOnUse" color-interpolation-filters="sRGB">
<feFlood flood-opacity="0" result="BackgroundImageFix"/>
<feColorMatrix in="SourceAlpha" type="matrix" values="0 0 0 0 0 0 0 0 0 0 0 0 0 0 0 0 0 0 127 0"/>
<feOffset dy="4"/>
<feGaussianBlur stdDeviation="2"/>
<feColorMatrix type="matrix" values="0 0 0 0 0 0 0 0 0 0 0 0 0 0 0 0 0 0 0.25 0"/>
<feBlend mode="normal" in2="BackgroundImageFix" result="effect1_dropShadow"/>
<feBlend mode="normal" in="SourceGraphic" in2="effect1_dropShadow" result="shape"/>
</filter>
<linearGradient id="paint0_linear" x1="-2" y1="111" x2="509" y2="83" gradientUnits="userSpaceOnUse">
<stop stop-color="#E10B32" stop-opacity="0.92"/>
<stop offset="0.0863825" stop-color="#E3022A" stop-opacity="0.71"/>
<stop offset="0.193879" stop-color="#EE0831" stop-opacity="0.67"/>
<stop offset="0.466284" stop-color="#BAF45B" stop-opacity="0.74"/>
<stop offset="0.625712" stop-color="#F78CA0" stop-opacity="0.311087"/>
<stop offset="0.822985" stop-color="#FAFF1B" stop-opacity="0.83"/>
<stop offset="1" stop-color="white" stop-opacity="0"/>
</linearGradient>
</defs>
</svg>
